<svg xmlns="http://www.w3.org/2000/svg" xmlns:xlink="http://www.w3.org/1999/xlink" width="500" zoomAndPan="magnify" viewBox="0 0 375 374.999991" height="500" preserveAspectRatio="xMidYMid meet" version="1.0"><defs><g/></defs><rect x="-37.5" width="450" fill="#ffffff" y="-37.499999" height="449.999989" fill-opacity="1"/><rect x="-37.5" width="450" fill="#ffffff" y="-37.499999" height="449.999989" fill-opacity="1"/><path stroke-linecap="butt" transform="matrix(0.712893, 0.0840728, -0.0840728, 0.712893, 18.044624, 145.608463)" fill="none" stroke-linejoin="miter" d="M -0.000448418 1.502696 L 76.645438 1.499286 " stroke="#000000" stroke-width="3" stroke-opacity="1" stroke-miterlimit="4"/><path stroke-linecap="butt" transform="matrix(0.652281, 0.29969, -0.29969, 0.652281, 18.367945, 145.699795)" fill="none" stroke-linejoin="miter" d="M 0.000296598 1.502118 L 97.188329 1.500176 " stroke="#000000" stroke-width="3" stroke-opacity="1" stroke-miterlimit="4"/><path stroke-linecap="butt" transform="matrix(0.263875, 0.667574, -0.667574, 0.263875, 61.248992, 120.957647)" fill="none" stroke-linejoin="miter" d="M -0.00324609 1.50102 L 81.342858 1.501616 " stroke="#000000" stroke-width="3" stroke-opacity="1" stroke-miterlimit="4"/><path stroke-linecap="butt" transform="matrix(0.717834, 0, 0, 0.717834, 34.243091, 120.117868)" fill="none" stroke-linejoin="miter" d="M -0.00125816 1.500967 L 36.784775 1.500967 " stroke="#000000" stroke-width="3" stroke-opacity="1" stroke-miterlimit="4"/><path stroke-linecap="butt" transform="matrix(0, 0.717834, -0.717834, 0, 35.316477, 121.197986)" fill="none" stroke-linejoin="miter" d="M 0.00171782 1.502013 L 5.399905 1.502013 " stroke="#000000" stroke-width="3" stroke-opacity="1" stroke-miterlimit="4"/><path stroke-linecap="butt" transform="matrix(0.256149, 0.670576, -0.670576, 0.256149, 35.247699, 124.688517)" fill="none" stroke-linejoin="miter" d="M 0.00209921 1.500275 L 36.39874 1.498421 " stroke="#000000" stroke-width="3" stroke-opacity="1" stroke-miterlimit="4"/><path stroke-linecap="butt" transform="matrix(-0.246902, 0.674036, -0.674036, -0.246902, 120.692399, 121.449338)" fill="none" stroke-linejoin="miter" d="M -0.000330622 1.50258 L 91.912264 1.49964 " stroke="#000000" stroke-width="3" stroke-opacity="1" stroke-miterlimit="4"/><path stroke-linecap="butt" transform="matrix(-0.642402, -0.320319, 0.320319, -0.642402, 119.512446, 195.502838)" fill="none" stroke-linejoin="miter" d="M 0.0010263 1.499755 L 36.303229 1.500708 " stroke="#000000" stroke-width="3" stroke-opacity="1" stroke-miterlimit="4"/><path stroke-linecap="butt" transform="matrix(-0.277062, 0.66221, -0.66221, -0.277062, 124.27107, 187.110633)" fill="none" stroke-linejoin="miter" d="M 0.000571058 1.500383 L 11.850136 1.497643 " stroke="#000000" stroke-width="3" stroke-opacity="1" stroke-miterlimit="4"/><path stroke-linecap="butt" transform="matrix(-0.655171, -0.29332, 0.29332, -0.655171, 122.922448, 187.491988)" fill="none" stroke-linejoin="miter" d="M -0.000277293 1.502292 L 29.546541 1.498314 " stroke="#000000" stroke-width="3" stroke-opacity="1" stroke-miterlimit="4"/><path stroke-linecap="butt" transform="matrix(-0.371999, 0.613923, -0.613923, -0.371999, 106.629247, 176.330686)" fill="none" stroke-linejoin="miter" d="M 0.00185376 1.501044 L 3.737685 1.502511 " stroke="#000000" stroke-width="3" stroke-opacity="1" stroke-miterlimit="4"/><path stroke-linecap="butt" transform="matrix(-0.65688, -0.289472, 0.289472, -0.65688, 142.944751, 193.622346)" fill="none" stroke-linejoin="miter" d="M 0.000240425 1.500363 L 57.130845 1.502422 " stroke="#000000" stroke-width="3" stroke-opacity="1" stroke-miterlimit="4"/><path stroke-linecap="butt" transform="matrix(-0.325509, 0.639788, -0.639788, -0.325509, 145.324214, 191.271784)" fill="none" stroke-linejoin="miter" d="M 0.00282012 1.50052 L 2.928103 1.501957 " stroke="#000000" stroke-width="3" stroke-opacity="1" stroke-miterlimit="4"/><path stroke-linecap="butt" transform="matrix(-0.656539, -0.290245, 0.290245, -0.656539, 143.947569, 191.809015)" fill="none" stroke-linejoin="miter" d="M 0.000151066 1.499915 L 32.271977 1.500617 " stroke="#000000" stroke-width="3" stroke-opacity="1" stroke-miterlimit="4"/><path stroke-linecap="butt" transform="matrix(-0.271987, 0.66431, -0.66431, -0.271987, 147.729297, 125.47984)" fill="none" stroke-linejoin="miter" d="M -0.0028078 1.498827 L 84.689146 1.498846 " stroke="#000000" stroke-width="3" stroke-opacity="1" stroke-miterlimit="4"/><path stroke-linecap="butt" transform="matrix(0, -0.717834, 0.717834, 0, 145.654125, 125.067546)" fill="none" stroke-linejoin="miter" d="M 0.00158802 1.499433 L 5.399775 1.499433 " stroke="#000000" stroke-width="3" stroke-opacity="1" stroke-miterlimit="4"/><path stroke-linecap="butt" transform="matrix(0.717834, 0, 0, 0.717834, 119.997844, 119.758946)" fill="none" stroke-linejoin="miter" d="M -0.00243799 1.500336 L 36.789036 1.500336 " stroke="#000000" stroke-width="3" stroke-opacity="1" stroke-miterlimit="4"/><path stroke-linecap="butt" transform="matrix(-0.650161, -0.304263, 0.304263, -0.650161, 132.862731, 214.828243)" fill="none" stroke-linejoin="miter" d="M -0.00064848 1.502518 L 63.479652 1.499161 " stroke="#000000" stroke-width="3" stroke-opacity="1" stroke-miterlimit="4"/><path stroke-linecap="butt" transform="matrix(-0.689648, -0.199177, 0.199177, -0.689648, 133.043403, 214.814928)" fill="none" stroke-linejoin="miter" d="M -0.00242401 1.49955 L 28.647025 1.50061 " stroke="#000000" stroke-width="3" stroke-opacity="1" stroke-miterlimit="4"/><path stroke-linecap="butt" transform="matrix(0.280359, -0.66082, 0.66082, 0.280359, 107.290771, 220.160904)" fill="none" stroke-linejoin="miter" d="M -0.00116349 1.499356 L 18.927645 1.501967 " stroke="#000000" stroke-width="3" stroke-opacity="1" stroke-miterlimit="4"/><path stroke-linecap="butt" transform="matrix(-0.641573, -0.321978, 0.321978, -0.641573, 107.798765, 221.545634)" fill="none" stroke-linejoin="miter" d="M 0.00137688 1.501248 L 92.425171 1.500303 " stroke="#000000" stroke-width="3" stroke-opacity="1" stroke-miterlimit="4"/><path stroke-linecap="butt" transform="matrix(0.39483, -0.599495, 0.599495, 0.39483, 48.258553, 190.366612)" fill="none" stroke-linejoin="miter" d="M 0.000938776 1.496802 L 3.586981 1.500294 " stroke="#000000" stroke-width="3" stroke-opacity="1" stroke-miterlimit="4"/><path stroke-linecap="butt" transform="matrix(-0.645791, -0.313432, 0.313432, -0.645791, 50.100964, 189.779359)" fill="none" stroke-linejoin="miter" d="M -0.000109832 1.497224 L 50.568956 1.499698 " stroke="#000000" stroke-width="3" stroke-opacity="1" stroke-miterlimit="4"/><path stroke-linecap="butt" transform="matrix(-0.384343, 0.606272, -0.606272, -0.384343, 20.097158, 171.819716)" fill="none" stroke-linejoin="miter" d="M -0.00100602 1.50105 L 2.518605 1.501636 " stroke="#000000" stroke-width="3" stroke-opacity="1" stroke-miterlimit="4"/><path stroke-linecap="butt" transform="matrix(-0.649119, -0.306479, 0.306479, -0.649119, 96.213485, 209.048278)" fill="none" stroke-linejoin="miter" d="M 0.00189987 1.499689 L 119.130601 1.5017 " stroke="#000000" stroke-width="3" stroke-opacity="1" stroke-miterlimit="4"/><path stroke-linecap="butt" transform="matrix(-0.332071, 0.636407, -0.636407, -0.332071, 98.277992, 205.920265)" fill="none" stroke-linejoin="miter" d="M -0.000889791 1.499148 L 3.910559 1.502137 " stroke="#000000" stroke-width="3" stroke-opacity="1" stroke-miterlimit="4"/><path stroke-linecap="butt" transform="matrix(-0.645652, -0.313718, 0.313718, -0.645652, 96.847294, 206.387917)" fill="none" stroke-linejoin="miter" d="M 0.00273137 1.500951 L 59.698215 1.499403 " stroke="#000000" stroke-width="3" stroke-opacity="1" stroke-miterlimit="4"/><path stroke-linecap="butt" transform="matrix(0.221832, 0.682697, -0.682697, 0.221832, 56.99929, 177.737244)" fill="none" stroke-linejoin="miter" d="M 0.000990706 1.498391 L 12.633934 1.500758 " stroke="#000000" stroke-width="3" stroke-opacity="1" stroke-miterlimit="4"/><path stroke-linecap="butt" transform="matrix(-0.652394, -0.299445, 0.299445, -0.652394, 87.30188, 193.631018)" fill="none" stroke-linejoin="miter" d="M 0.00137463 1.499496 L 48.717607 1.50259 " stroke="#000000" stroke-width="3" stroke-opacity="1" stroke-miterlimit="4"/><path stroke-linecap="butt" transform="matrix(0.263399, 0.667762, -0.667762, 0.263399, 88.908207, 192.196511)" fill="none" stroke-linejoin="miter" d="M -0.00244946 1.499505 L 9.229591 1.496684 " stroke="#000000" stroke-width="3" stroke-opacity="1" stroke-miterlimit="4"/><path stroke-linecap="butt" transform="matrix(-0.242221, 0.675732, -0.675732, -0.242221, 92.97566, 194.871287)" fill="none" stroke-linejoin="miter" d="M 0.000341422 1.501541 L 6.334465 1.497087 " stroke="#000000" stroke-width="3" stroke-opacity="1" stroke-miterlimit="4"/><path stroke-linecap="butt" transform="matrix(-0.717834, 0, 0, -0.717834, 102.130553, 237.077576)" fill="none" stroke-linejoin="miter" d="M 0.00229405 1.501151 L 32.794104 1.501151 " stroke="#000000" stroke-width="3" stroke-opacity="1" stroke-miterlimit="4"/><path stroke-linecap="butt" transform="matrix(-0.284322, 0.659125, -0.659125, -0.284322, 108.811257, 223.86082)" fill="none" stroke-linejoin="miter" d="M -0.00186029 1.498301 L 18.856866 1.500306 " stroke="#000000" stroke-width="3" stroke-opacity="1" stroke-miterlimit="4"/><path stroke-linecap="butt" transform="matrix(0.647869, 0.309114, -0.309114, 0.647869, 64.360356, 201.499748)" fill="none" stroke-linejoin="miter" d="M 0.00286551 1.500338 L 67.80995 1.501623 " stroke="#000000" stroke-width="3" stroke-opacity="1" stroke-miterlimit="4"/><path stroke-linecap="butt" transform="matrix(-0.430875, 0.574136, -0.574136, -0.430875, 65.196101, 203.333982)" fill="none" stroke-linejoin="miter" d="M -0.00105866 1.498983 L 2.054824 1.500534 " stroke="#000000" stroke-width="3" stroke-opacity="1" stroke-miterlimit="4"/><path stroke-linecap="butt" transform="matrix(0.636527, 0.331842, -0.331842, 0.636527, 64.367667, 202.908503)" fill="none" stroke-linejoin="miter" d="M 0.00146253 1.49922 L 4.333906 1.498927 " stroke="#000000" stroke-width="3" stroke-opacity="1" stroke-miterlimit="4"/><path stroke-linecap="butt" transform="matrix(0.262691, 0.668041, -0.668041, 0.262691, 67.628782, 205.032248)" fill="none" stroke-linejoin="miter" d="M -0.00152886 1.501974 L 45.560777 1.502034 " stroke="#000000" stroke-width="3" stroke-opacity="1" stroke-miterlimit="4"/><g fill="#000000" fill-opacity="1"><g transform="translate(138.555304, 222.57756)"><g><path d="M 1.46875 -14.453125 L 1.46875 -20.28125 L 23.921875 -20.28125 L 23.921875 -14.453125 Z M 1.46875 -14.453125 "/></g></g></g><g fill="#000000" fill-opacity="1"><g transform="translate(166.191957, 222.57756)"><g><path d="M 70.515625 0 L 55.8125 0 L 55.8125 -22.34375 L 42.671875 0 L 31.71875 0 L 18.609375 -22.34375 L 18.609375 0 L 3.90625 0 L 3.90625 -35.03125 L 21.359375 -35.03125 L 37.203125 -10.015625 L 53.03125 -35.03125 L 70.515625 -35.03125 Z M 70.515625 0 "/></g></g></g><g fill="#000000" fill-opacity="1"><g transform="translate(242.844387, 222.57756)"><g><path d="M 58.84375 0 L 43.953125 0 L 40.65625 -5.734375 L 18.5625 -5.734375 L 15.265625 0 L 0.359375 0 L 22.78125 -35.015625 L 36.421875 -35.015625 Z M 35.6875 -14.40625 L 29.609375 -25.03125 L 23.515625 -14.40625 Z M 35.6875 -14.40625 "/></g></g></g><g fill="#000000" fill-opacity="1"><g transform="translate(304.289234, 222.57756)"><g><path d="M 50.484375 0 L 35.59375 0 L 25.4375 -10.75 L 15.265625 0 L 0.359375 0 L 18.609375 -17.921875 L 0.359375 -35.015625 L 15.265625 -35.015625 L 25.4375 -24.96875 L 35.59375 -35.015625 L 50.484375 -35.015625 L 32.25 -17.921875 Z M 50.484375 0 "/></g></g></g></svg>