<svg xmlns="http://www.w3.org/2000/svg" xmlns:xlink="http://www.w3.org/1999/xlink" width="500" zoomAndPan="magnify" viewBox="0 0 375 374.999991" height="500" preserveAspectRatio="xMidYMid meet" version="1.0"><defs><g/><clipPath id="ffc483ca7a"><path d="M 54.285156 60.152344 L 322 60.152344 L 322 194.402344 L 54.285156 194.402344 Z M 54.285156 60.152344 " clip-rule="nonzero"/></clipPath><clipPath id="ce29ea7133"><path d="M 54 56 L 324 56 L 324 326.199219 L 54 326.199219 Z M 54 56 " clip-rule="nonzero"/></clipPath></defs><rect x="-37.5" width="450" fill="#ffffff" y="-37.499999" height="449.999989" fill-opacity="1"/><rect x="-37.5" width="450" fill="#ffffff" y="-37.499999" height="449.999989" fill-opacity="1"/><path stroke-linecap="butt" transform="matrix(0, 0.75, -0.75, 0, 124.4252, 132.2363)" fill="none" stroke-linejoin="miter" d="M -0.00256682 0.499225 L 6.174517 0.499225 " stroke="#ffffff" stroke-width="1" stroke-opacity="1" stroke-miterlimit="4"/><path stroke-linecap="butt" transform="matrix(-0.257966, 0.70424, -0.70424, -0.257966, 21.955927, 82.783999)" fill="none" stroke-linejoin="miter" d="M 0.000783242 0.497354 L 105.079958 0.500996 " stroke="#ffffff" stroke-width="1" stroke-opacity="1" stroke-miterlimit="4"/><path stroke-linecap="butt" transform="matrix(-0.284175, 0.694078, -0.694078, -0.284175, 54.265098, 87.565511)" fill="none" stroke-linejoin="miter" d="M -0.00186519 0.500893 L 96.822103 0.501832 " stroke="#ffffff" stroke-width="1" stroke-opacity="1" stroke-miterlimit="4"/><path stroke-linecap="butt" transform="matrix(0, -0.75, 0.75, 0, 53.548105, 87.418941)" fill="none" stroke-linejoin="miter" d="M 0.00129588 0.49836 L 6.173171 0.49836 " stroke="#ffffff" stroke-width="1" stroke-opacity="1" stroke-miterlimit="4"/><path stroke-linecap="butt" transform="matrix(0.75, 0, 0, 0.75, 21.987266, 81.985658)" fill="none" stroke-linejoin="miter" d="M 0.00135418 0.49829 L 42.058649 0.49829 " stroke="#ffffff" stroke-width="1" stroke-opacity="1" stroke-miterlimit="4"/><path stroke-linecap="butt" transform="matrix(-0.401566, 0.633439, -0.633439, -0.401566, 106.383454, 192.219537)" fill="none" stroke-linejoin="miter" d="M 0.00110917 0.499814 L 2.880828 0.499583 " stroke="#ffffff" stroke-width="1" stroke-opacity="1" stroke-miterlimit="4"/><path fill="#000000" d="M 188.339844 284.945312 C 186.015625 284.945312 183.695312 284.859375 181.378906 284.691406 C 179.0625 284.519531 176.757812 284.265625 174.460938 283.921875 C 172.160156 283.582031 169.878906 283.15625 167.613281 282.648438 C 165.347656 282.140625 163.101562 281.550781 160.878906 280.875 C 158.65625 280.203125 156.460938 279.445312 154.296875 278.609375 C 152.128906 277.777344 149.996094 276.863281 147.894531 275.867188 C 145.796875 274.875 143.734375 273.808594 141.714844 272.664062 C 139.691406 271.519531 137.714844 270.300781 135.785156 269.011719 C 133.855469 267.722656 131.972656 266.363281 130.140625 264.933594 C 128.308594 263.507812 126.535156 262.011719 124.8125 260.453125 C 123.09375 258.894531 121.429688 257.273438 119.828125 255.59375 C 118.226562 253.910156 116.691406 252.171875 115.214844 250.378906 C 113.742188 248.582031 112.335938 246.738281 111 244.839844 C 109.664062 242.941406 108.398438 240.996094 107.203125 239.003906 C 106.007812 237.011719 104.890625 234.980469 103.84375 232.90625 C 102.800781 230.832031 101.835938 228.722656 100.945312 226.578125 C 100.054688 224.433594 99.246094 222.257812 98.519531 220.054688 C 97.789062 217.847656 97.144531 215.621094 96.578125 213.367188 C 96.015625 211.117188 95.535156 208.847656 95.136719 206.558594 C 94.742188 204.269531 94.429688 201.972656 94.199219 199.660156 C 93.972656 197.351562 93.832031 195.035156 93.773438 192.714844 C 93.714844 190.390625 93.746094 188.074219 93.859375 185.753906 C 93.972656 183.433594 94.171875 181.121094 94.457031 178.820312 C 94.742188 176.515625 95.109375 174.222656 95.5625 171.945312 C 96.015625 169.667969 96.550781 167.410156 97.171875 165.175781 C 97.792969 162.9375 98.492188 160.722656 99.273438 158.539062 C 100.058594 156.351562 100.917969 154.199219 101.859375 152.074219 C 102.800781 149.953125 103.820312 147.867188 104.914062 145.820312 C 106.007812 143.773438 107.179688 141.769531 108.421875 139.804688 C 109.664062 137.84375 110.976562 135.933594 112.359375 134.066406 C 113.746094 132.203125 115.195312 130.390625 116.710938 128.632812 C 118.230469 126.875 119.808594 125.175781 121.453125 123.53125 C 122.542969 122.433594 123.664062 121.359375 124.8125 120.316406 C 125.957031 119.273438 127.128906 118.257812 128.324219 117.269531 C 129.519531 116.28125 130.738281 115.324219 131.984375 114.398438 C 133.226562 113.472656 134.492188 112.574219 135.78125 111.710938 C 137.066406 110.847656 138.375 110.011719 139.703125 109.214844 C 141.03125 108.414062 142.378906 107.644531 143.746094 106.910156 C 145.109375 106.175781 146.492188 105.476562 147.894531 104.808594 C 149.296875 104.144531 150.710938 103.511719 152.144531 102.917969 C 153.574219 102.320312 155.019531 101.757812 156.480469 101.234375 C 157.9375 100.707031 159.410156 100.21875 160.894531 99.765625 C 162.375 99.3125 163.871094 98.894531 165.375 98.515625 C 166.878906 98.136719 168.390625 97.792969 169.910156 97.488281 C 171.429688 97.183594 172.957031 96.914062 174.492188 96.683594 C 176.027344 96.453125 177.5625 96.261719 179.109375 96.109375 C 180.652344 95.953125 182.195312 95.835938 183.746094 95.757812 C 185.296875 95.679688 186.84375 95.640625 188.394531 95.636719 C 189.949219 95.632812 191.496094 95.667969 193.046875 95.742188 C 194.597656 95.816406 196.140625 95.929688 197.6875 96.078125 C 199.230469 96.230469 200.769531 96.417969 202.304688 96.644531 C 203.839844 96.867188 205.367188 97.132812 206.886719 97.433594 C 208.410156 97.734375 209.921875 98.070312 211.425781 98.445312 C 212.933594 98.820312 214.425781 99.234375 215.910156 99.683594 C 217.398438 100.128906 218.871094 100.613281 220.332031 101.136719 C 221.792969 101.65625 223.238281 102.214844 224.671875 102.804688 C 226.105469 103.398438 227.523438 104.027344 228.925781 104.6875 C 230.328125 105.347656 231.714844 106.046875 233.082031 106.777344 C 234.449219 107.503906 235.800781 108.269531 237.128906 109.066406 C 238.460938 109.863281 239.773438 110.691406 241.0625 111.550781 C 242.351562 112.414062 243.621094 113.304688 244.867188 114.226562 C 246.113281 115.152344 247.335938 116.105469 248.535156 117.085938 C 249.734375 118.070312 250.90625 119.082031 252.054688 120.125 C 253.207031 121.164062 254.328125 122.234375 255.425781 123.332031 C 256.523438 124.425781 257.589844 125.550781 258.632812 126.699219 C 259.675781 127.847656 260.6875 129.019531 261.671875 130.21875 C 262.65625 131.417969 263.609375 132.640625 264.53125 133.886719 C 265.457031 135.132812 266.347656 136.398438 267.207031 137.6875 C 268.070312 138.976562 268.898438 140.289062 269.695312 141.617188 C 270.492188 142.949219 271.257812 144.296875 271.988281 145.664062 C 272.71875 147.03125 273.414062 148.417969 274.074219 149.820312 C 274.738281 151.222656 275.363281 152.636719 275.957031 154.070312 C 276.550781 155.503906 277.105469 156.949219 277.628906 158.410156 C 278.148438 159.871094 278.632812 161.34375 279.082031 162.828125 C 279.53125 164.3125 279.945312 165.804688 280.320312 167.308594 C 280.695312 168.8125 281.03125 170.328125 281.332031 171.847656 C 281.632812 173.367188 281.898438 174.894531 282.125 176.429688 C 282.347656 177.964844 282.535156 179.503906 282.6875 181.046875 C 282.835938 182.589844 282.949219 184.136719 283.023438 185.683594 C 283.097656 187.230469 283.132812 188.78125 283.128906 190.332031 C 283.128906 191.882812 283.085938 193.433594 283.007812 194.980469 C 282.929688 196.527344 282.8125 198.074219 282.660156 199.617188 C 282.503906 201.160156 282.3125 202.699219 282.082031 204.230469 C 281.851562 205.765625 281.582031 207.289062 281.277344 208.8125 C 280.972656 210.332031 280.628906 211.84375 280.25 213.34375 C 279.871094 214.847656 279.453125 216.34375 279 217.824219 C 278.546875 219.308594 278.058594 220.777344 277.53125 222.238281 C 277.003906 223.695312 276.445312 225.140625 275.847656 226.570312 C 275.25 228.003906 274.617188 229.417969 273.953125 230.816406 C 273.285156 232.21875 272.585938 233.601562 271.851562 234.964844 C 271.117188 236.332031 270.347656 237.679688 269.546875 239.007812 C 268.746094 240.332031 267.914062 241.640625 267.050781 242.929688 C 266.183594 244.214844 265.289062 245.480469 264.359375 246.722656 C 263.433594 247.964844 262.476562 249.183594 261.488281 250.378906 C 260.5 251.574219 259.484375 252.746094 258.441406 253.890625 C 257.394531 255.039062 256.324219 256.15625 255.222656 257.25 C 253.035156 259.445312 250.75 261.53125 248.355469 263.5 C 245.964844 265.46875 243.484375 267.316406 240.910156 269.042969 C 238.332031 270.765625 235.679688 272.359375 232.949219 273.824219 C 230.214844 275.285156 227.417969 276.609375 224.554688 277.792969 C 221.691406 278.980469 218.777344 280.019531 215.8125 280.917969 C 212.84375 281.816406 209.84375 282.566406 206.800781 283.164062 C 203.761719 283.765625 200.699219 284.214844 197.613281 284.511719 C 194.53125 284.808594 191.4375 284.953125 188.339844 284.945312 Z M 188.339844 99.359375 C 138.121094 99.359375 97.269531 140.195312 97.269531 190.394531 C 97.269531 240.589844 138.121094 281.421875 188.339844 281.421875 C 238.558594 281.421875 279.40625 240.585938 279.40625 190.394531 C 279.40625 140.199219 238.554688 99.359375 188.339844 99.359375 Z M 188.339844 99.359375 " fill-opacity="1" fill-rule="nonzero"/><g clip-path="url(#ffc483ca7a)"><path fill="#000000" d="M 93.894531 194.402344 C 93.894531 142.546875 136.011719 100.429688 187.867188 100.429688 C 239.722656 100.429688 281.839844 142.546875 281.839844 194.402344 L 321.917969 194.402344 C 321.917969 120.359375 261.914062 60.351562 187.867188 60.351562 C 113.824219 60.351562 54.042969 120.359375 54.042969 194.402344 Z M 93.894531 194.402344 " fill-opacity="1" fill-rule="nonzero"/></g><g clip-path="url(#ce29ea7133)"><path fill="#000000" d="M 188.546875 326.117188 C 185.246094 326.117188 181.945312 325.996094 178.652344 325.753906 C 175.355469 325.507812 172.078125 325.144531 168.808594 324.660156 C 165.542969 324.175781 162.296875 323.570312 159.074219 322.847656 C 155.847656 322.125 152.65625 321.28125 149.496094 320.324219 C 146.335938 319.363281 143.214844 318.292969 140.132812 317.101562 C 137.050781 315.914062 134.015625 314.613281 131.03125 313.199219 C 128.042969 311.785156 125.113281 310.265625 122.238281 308.636719 C 119.363281 307.007812 116.554688 305.277344 113.808594 303.441406 C 111.0625 301.605469 108.386719 299.671875 105.78125 297.640625 C 103.175781 295.605469 100.652344 293.480469 98.203125 291.261719 C 95.757812 289.042969 93.394531 286.738281 91.117188 284.34375 C 88.835938 281.953125 86.652344 279.476562 84.554688 276.921875 C 82.460938 274.371094 80.460938 271.742188 78.558594 269.039062 C 76.65625 266.339844 74.855469 263.570312 73.160156 260.738281 C 71.460938 257.902344 69.867188 255.011719 68.382812 252.058594 C 66.898438 249.109375 65.523438 246.105469 64.257812 243.054688 C 62.996094 240 61.84375 236.90625 60.808594 233.769531 C 59.773438 230.632812 58.851562 227.460938 58.050781 224.253906 C 57.246094 221.050781 56.5625 217.820312 56 214.566406 C 55.433594 211.308594 54.992188 208.039062 54.667969 204.75 C 54.34375 201.460938 54.140625 198.164062 54.058594 194.863281 C 53.976562 191.558594 54.019531 188.257812 54.179688 184.957031 C 54.34375 181.65625 54.625 178.367188 55.03125 175.089844 C 55.433594 171.808594 55.960938 168.550781 56.605469 165.308594 C 57.25 162.070312 58.011719 158.855469 58.890625 155.671875 C 59.773438 152.488281 60.769531 149.339844 61.882812 146.230469 C 62.996094 143.117188 64.222656 140.050781 65.558594 137.03125 C 66.898438 134.011719 68.347656 131.042969 69.90625 128.128906 C 71.460938 125.214844 73.125 122.363281 74.890625 119.570312 C 76.660156 116.78125 78.527344 114.058594 80.492188 111.402344 C 82.460938 108.75 84.523438 106.171875 86.683594 103.671875 C 88.839844 101.167969 91.085938 98.75 93.421875 96.414062 C 94.976562 94.847656 96.570312 93.324219 98.199219 91.835938 C 99.832031 90.351562 101.496094 88.90625 103.195312 87.5 C 104.898438 86.09375 106.632812 84.734375 108.402344 83.414062 C 110.167969 82.09375 111.96875 80.820312 113.800781 79.589844 C 115.628906 78.359375 117.488281 77.175781 119.378906 76.035156 C 121.269531 74.894531 123.183594 73.804688 125.128906 72.757812 C 127.070312 71.714844 129.039062 70.71875 131.027344 69.769531 C 133.019531 68.820312 135.035156 67.921875 137.070312 67.074219 C 139.105469 66.226562 141.164062 65.425781 143.238281 64.679688 C 145.3125 63.929688 147.40625 63.234375 149.515625 62.589844 C 151.625 61.945312 153.75 61.351562 155.886719 60.8125 C 158.027344 60.273438 160.175781 59.785156 162.339844 59.351562 C 164.5 58.914062 166.675781 58.535156 168.855469 58.207031 C 171.035156 57.878906 173.226562 57.605469 175.417969 57.386719 C 177.613281 57.164062 179.8125 57 182.015625 56.886719 C 184.21875 56.777344 186.421875 56.71875 188.628906 56.714844 C 190.835938 56.710938 193.039062 56.761719 195.242188 56.867188 C 197.445312 56.972656 199.644531 57.132812 201.839844 57.34375 C 204.039062 57.558594 206.226562 57.824219 208.410156 58.148438 C 210.589844 58.46875 212.765625 58.84375 214.929688 59.269531 C 217.09375 59.699219 219.242188 60.179688 221.382812 60.714844 C 223.523438 61.246094 225.652344 61.832031 227.761719 62.472656 C 229.875 63.109375 231.96875 63.800781 234.046875 64.542969 C 236.121094 65.28125 238.179688 66.074219 240.21875 66.917969 C 242.257812 67.761719 244.273438 68.652344 246.269531 69.59375 C 248.265625 70.539062 250.234375 71.527344 252.179688 72.566406 C 254.125 73.605469 256.046875 74.691406 257.9375 75.824219 C 259.832031 76.957031 261.695312 78.136719 263.527344 79.363281 C 265.363281 80.589844 267.167969 81.855469 268.9375 83.171875 C 270.710938 84.484375 272.449219 85.839844 274.15625 87.242188 C 275.859375 88.640625 277.53125 90.082031 279.164062 91.5625 C 280.800781 93.042969 282.398438 94.566406 283.957031 96.125 C 285.515625 97.683594 287.035156 99.28125 288.519531 100.917969 C 290 102.550781 291.4375 104.222656 292.839844 105.929688 C 294.238281 107.632812 295.59375 109.375 296.90625 111.144531 C 298.222656 112.917969 299.488281 114.722656 300.714844 116.558594 C 301.941406 118.390625 303.117188 120.257812 304.25 122.148438 C 305.386719 124.042969 306.472656 125.960938 307.507812 127.910156 C 308.546875 129.855469 309.539062 131.824219 310.480469 133.820312 C 311.421875 135.816406 312.3125 137.832031 313.15625 139.871094 C 314 141.910156 314.792969 143.96875 315.53125 146.046875 C 316.273438 148.125 316.964844 150.21875 317.601562 152.332031 C 318.242188 154.445312 318.828125 156.570312 319.359375 158.710938 C 319.894531 160.851562 320.375 163.003906 320.804688 165.167969 C 321.230469 167.335938 321.605469 169.507812 321.925781 171.691406 C 322.246094 173.875 322.515625 176.0625 322.726562 178.257812 C 322.941406 180.453125 323.101562 182.65625 323.207031 184.859375 C 323.308594 187.0625 323.359375 189.269531 323.359375 191.472656 C 323.355469 193.679688 323.296875 195.886719 323.183594 198.089844 C 323.074219 200.292969 322.90625 202.492188 322.6875 204.6875 C 322.46875 206.882812 322.195312 209.070312 321.867188 211.253906 C 321.539062 213.433594 321.15625 215.609375 320.722656 217.769531 C 320.289062 219.933594 319.800781 222.085938 319.261719 224.222656 C 318.722656 226.363281 318.128906 228.488281 317.484375 230.597656 C 316.839844 232.707031 316.144531 234.800781 315.394531 236.875 C 314.648438 238.953125 313.847656 241.007812 313 243.042969 C 312.152344 245.082031 311.253906 247.09375 310.304688 249.089844 C 309.359375 251.082031 308.363281 253.046875 307.316406 254.992188 C 306.273438 256.933594 305.179688 258.851562 304.042969 260.742188 C 302.902344 262.628906 301.71875 264.492188 300.488281 266.320312 C 299.257812 268.152344 297.984375 269.953125 296.664062 271.722656 C 295.34375 273.488281 293.984375 275.226562 292.578125 276.925781 C 291.175781 278.628906 289.730469 280.292969 288.242188 281.925781 C 286.757812 283.554688 285.234375 285.148438 283.667969 286.703125 C 280.558594 289.828125 277.304688 292.792969 273.90625 295.597656 C 270.503906 298.402344 266.972656 301.03125 263.3125 303.484375 C 259.648438 305.9375 255.875 308.207031 251.992188 310.289062 C 248.105469 312.367188 244.125 314.253906 240.054688 315.941406 C 235.984375 317.625 231.835938 319.109375 227.621094 320.386719 C 223.402344 321.664062 219.128906 322.730469 214.804688 323.582031 C 210.480469 324.4375 206.125 325.074219 201.738281 325.5 C 197.351562 325.921875 192.957031 326.128906 188.546875 326.117188 Z M 188.546875 62.011719 C 117.128906 62.011719 59.03125 120.125 59.03125 191.5625 C 59.03125 262.996094 117.128906 321.105469 188.546875 321.105469 C 259.96875 321.105469 318.0625 262.992188 318.0625 191.5625 C 318.0625 120.132812 259.960938 62.011719 188.546875 62.011719 Z M 188.546875 62.011719 " fill-opacity="1" fill-rule="nonzero"/></g><g fill="#ffffff" fill-opacity="1"><g transform="translate(94.479246, 147.289586)"><g><path d="M 9.546875 -13.8125 L 5.671875 -8.21875 L -14.265625 -10.09375 L -10.03125 -16.203125 L 3.53125 -13.859375 L -3.46875 -25.703125 L 0.75 -31.828125 Z M 9.546875 -13.8125 "/></g></g></g><g fill="#ffffff" fill-opacity="1"><g transform="translate(109.573978, 125.668911)"><g><path d="M 17.21875 -15.28125 L 1.46875 -1.296875 L -10.140625 -14.390625 L 4.890625 -27.734375 L 7.765625 -24.5 L -1.78125 -16.03125 L 0.03125 -13.96875 L 8.09375 -21.125 L 10.328125 -18.609375 L 2.265625 -11.453125 L 4.078125 -9.40625 L 14.34375 -18.515625 Z M 17.21875 -15.28125 "/></g></g></g><g fill="#ffffff" fill-opacity="1"><g transform="translate(126.925615, 109.704896)"><g><path d="M 24.859375 -12.671875 L 17.078125 -8.703125 L 2.90625 -14.765625 L 8.28125 -4.21875 L 1.734375 -0.890625 L -6.21875 -16.484375 L 1.5625 -20.453125 L 15.71875 -14.4375 L 10.359375 -24.9375 L 16.90625 -28.265625 Z M 24.859375 -12.671875 "/></g></g></g><g fill="#ffffff" fill-opacity="1"><g transform="translate(153.268102, 96.716696)"><g><path d="M 14.546875 -3.3125 L 7.390625 -1.6875 L 4.46875 -14.53125 L -2.203125 -13 L -3.171875 -17.21875 L 17.34375 -21.90625 L 18.3125 -17.6875 L 11.625 -16.15625 Z M 14.546875 -3.3125 "/></g></g></g><g fill="#ffffff" fill-opacity="1"><g transform="translate(174.741615, 91.326571)"><g><path d="M 29.375 0.640625 L 21.9375 0.484375 L 20.359375 -2.421875 L 9.328125 -2.65625 L 7.625 0.171875 L 0.1875 0 L 11.75 -17.234375 L 18.5625 -17.09375 Z M 17.984375 -6.796875 L 15.046875 -12.171875 L 11.890625 -6.9375 Z M 17.984375 -6.796875 "/></g></g></g><g fill="#ffffff" fill-opacity="1"><g transform="translate(204.175777, 92.970714)"><g/></g></g><g fill="#ffffff" fill-opacity="1"><g transform="translate(210.521946, 92.576948)"><g><path d="M 32.421875 13.734375 L 25.671875 10.875 L 30.015625 0.609375 L 19.625 8.3125 L 14.59375 6.171875 L 12.90625 -6.640625 L 8.5625 3.625 L 1.796875 0.765625 L 8.625 -15.34375 L 16.65625 -11.953125 L 19.0625 2.640625 L 31.21875 -5.78125 L 39.25 -2.375 Z M 32.421875 13.734375 "/></g></g></g><g fill="#ffffff" fill-opacity="1"><g transform="translate(243.797009, 107.177595)"><g><path d="M 22.21875 19.21875 L 16.59375 14.34375 L 17.234375 11.125 L 8.890625 3.90625 L 5.765625 4.984375 L 0.140625 0.125 L 20.046875 -5.78125 L 25.1875 -1.328125 Z M 18.1875 6.21875 L 19.359375 0.21875 L 13.578125 2.234375 Z M 18.1875 6.21875 "/></g></g></g><g fill="#ffffff" fill-opacity="1"><g transform="translate(265.626305, 126.328125)"><g><path d="M 14.21875 20.828125 L 10.015625 14.6875 L 11.578125 7.484375 L 4.296875 6.296875 L 0.109375 0.15625 L 12.625 2.640625 L 14.546875 -9.703125 L 18.734375 -3.5625 L 17.453125 3.46875 L 24.453125 4.828125 L 28.65625 10.96875 L 16.46875 8.265625 Z M 14.21875 20.828125 "/></g></g></g><g fill="#000000" fill-opacity="1"><g transform="translate(86.07758, 239.366976)"><g><path d="M 11.671875 2.40625 C 11.773438 2.625 11.796875 2.832031 11.734375 3.03125 C 11.671875 3.238281 11.53125 3.394531 11.3125 3.5 C 11.101562 3.59375 10.898438 3.597656 10.703125 3.515625 C 10.515625 3.441406 10.367188 3.296875 10.265625 3.078125 L 9.34375 1.15625 L 2.96875 4.234375 C 2.75 4.335938 2.53125 4.347656 2.3125 4.265625 C 2.101562 4.179688 1.941406 4.023438 1.828125 3.796875 C 1.722656 3.578125 1.703125 3.359375 1.765625 3.140625 C 1.835938 2.929688 1.984375 2.773438 2.203125 2.671875 L 8.578125 -0.40625 L 7.65625 -2.328125 C 7.550781 -2.546875 7.53125 -2.753906 7.59375 -2.953125 C 7.65625 -3.160156 7.789062 -3.316406 8 -3.421875 C 8.207031 -3.515625 8.410156 -3.519531 8.609375 -3.4375 C 8.804688 -3.363281 8.957031 -3.21875 9.0625 -3 Z M 11.671875 2.40625 "/></g></g></g><g fill="#000000" fill-opacity="1"><g transform="translate(91.940885, 250.993166)"><g><path d="M 9.25 5.578125 C 8.5 6.066406 7.703125 6.347656 6.859375 6.421875 C 6.023438 6.492188 5.234375 6.351562 4.484375 6 C 3.742188 5.65625 3.132812 5.113281 2.65625 4.375 C 2.1875 3.644531 1.941406 2.867188 1.921875 2.046875 C 1.910156 1.222656 2.109375 0.445312 2.515625 -0.28125 C 2.929688 -1.019531 3.515625 -1.632812 4.265625 -2.125 C 5.015625 -2.601562 5.804688 -2.878906 6.640625 -2.953125 C 7.484375 -3.035156 8.273438 -2.898438 9.015625 -2.546875 C 9.753906 -2.191406 10.359375 -1.648438 10.828125 -0.921875 C 11.304688 -0.179688 11.554688 0.59375 11.578125 1.40625 C 11.597656 2.226562 11.398438 3.007812 10.984375 3.75 C 10.578125 4.488281 10 5.097656 9.25 5.578125 Z M 8.296875 4.09375 C 8.804688 3.769531 9.203125 3.367188 9.484375 2.890625 C 9.765625 2.421875 9.90625 1.929688 9.90625 1.421875 C 9.914062 0.910156 9.769531 0.425781 9.46875 -0.03125 C 9.175781 -0.488281 8.796875 -0.820312 8.328125 -1.03125 C 7.859375 -1.238281 7.347656 -1.304688 6.796875 -1.234375 C 6.253906 -1.171875 5.726562 -0.976562 5.21875 -0.65625 C 4.71875 -0.320312 4.320312 0.078125 4.03125 0.546875 C 3.75 1.015625 3.601562 1.503906 3.59375 2.015625 C 3.59375 2.535156 3.738281 3.023438 4.03125 3.484375 C 4.332031 3.941406 4.722656 4.269531 5.203125 4.46875 C 5.679688 4.675781 6.191406 4.75 6.734375 4.6875 C 7.273438 4.625 7.796875 4.425781 8.296875 4.09375 Z M 8.296875 4.09375 "/></g></g></g><g fill="#000000" fill-opacity="1"><g transform="translate(100.280367, 263.263981)"><g><path d="M 10.484375 -2.296875 C 11.046875 -1.640625 11.359375 -0.945312 11.421875 -0.21875 C 11.492188 0.507812 11.363281 1.226562 11.03125 1.9375 C 10.695312 2.644531 10.191406 3.285156 9.515625 3.859375 C 8.847656 4.429688 8.132812 4.828125 7.375 5.046875 C 6.625 5.273438 5.894531 5.296875 5.1875 5.109375 C 4.476562 4.921875 3.84375 4.5 3.28125 3.84375 L 1.203125 1.40625 C 1.046875 1.21875 0.972656 1.015625 0.984375 0.796875 C 1.003906 0.578125 1.101562 0.390625 1.28125 0.234375 L 7.234375 -4.84375 C 7.398438 -4.988281 7.597656 -5.050781 7.828125 -5.03125 C 8.054688 -5.019531 8.25 -4.921875 8.40625 -4.734375 Z M 4.375 2.75 C 4.90625 3.375 5.53125 3.640625 6.25 3.546875 C 6.976562 3.453125 7.6875 3.109375 8.375 2.515625 C 9.070312 1.921875 9.515625 1.273438 9.703125 0.578125 C 9.898438 -0.109375 9.738281 -0.757812 9.21875 -1.375 L 7.765625 -3.0625 L 2.921875 1.0625 Z M 4.375 2.75 "/></g></g></g><g fill="#000000" fill-opacity="1"><g transform="translate(109.739779, 273.914639)"><g><path d="M 10.390625 2.984375 C 9.785156 3.648438 9.085938 4.125 8.296875 4.40625 C 7.515625 4.695312 6.71875 4.769531 5.90625 4.625 C 5.09375 4.488281 4.363281 4.125 3.71875 3.53125 C 3.0625 2.945312 2.617188 2.257812 2.390625 1.46875 C 2.171875 0.6875 2.160156 -0.109375 2.359375 -0.921875 C 2.566406 -1.742188 2.972656 -2.488281 3.578125 -3.15625 C 4.171875 -3.8125 4.859375 -4.285156 5.640625 -4.578125 C 6.429688 -4.867188 7.226562 -4.941406 8.03125 -4.796875 C 8.84375 -4.648438 9.578125 -4.285156 10.234375 -3.703125 C 10.878906 -3.109375 11.316406 -2.421875 11.546875 -1.640625 C 11.773438 -0.859375 11.785156 -0.0546875 11.578125 0.765625 C 11.378906 1.585938 10.984375 2.328125 10.390625 2.984375 Z M 9.078125 1.8125 C 9.484375 1.363281 9.757812 0.875 9.90625 0.34375 C 10.050781 -0.175781 10.054688 -0.6875 9.921875 -1.1875 C 9.796875 -1.695312 9.535156 -2.132812 9.140625 -2.5 C 8.722656 -2.863281 8.257812 -3.082031 7.75 -3.15625 C 7.25 -3.238281 6.742188 -3.175781 6.234375 -2.96875 C 5.734375 -2.757812 5.28125 -2.429688 4.875 -1.984375 C 4.46875 -1.535156 4.1875 -1.046875 4.03125 -0.515625 C 3.875 0.015625 3.859375 0.523438 3.984375 1.015625 C 4.117188 1.515625 4.394531 1.945312 4.8125 2.3125 C 5.207031 2.675781 5.660156 2.894531 6.171875 2.96875 C 6.691406 3.050781 7.203125 2.988281 7.703125 2.78125 C 8.210938 2.582031 8.671875 2.257812 9.078125 1.8125 Z M 9.078125 1.8125 "/></g></g></g><g fill="#000000" fill-opacity="1"><g transform="translate(120.935826, 283.458825)"><g/></g></g><g fill="#000000" fill-opacity="1"><g transform="translate(127.630629, 288.192088)"><g><path d="M 6.265625 1.921875 C 6.460938 2.046875 6.585938 2.21875 6.640625 2.4375 C 6.691406 2.65625 6.664062 2.851562 6.5625 3.03125 C 6.445312 3.21875 6.285156 3.332031 6.078125 3.375 C 5.867188 3.414062 5.664062 3.375 5.46875 3.25 L 1.578125 0.9375 C 1.378906 0.820312 1.25 0.65625 1.1875 0.4375 C 1.132812 0.21875 1.171875 0.00390625 1.296875 -0.203125 L 5.296875 -6.90625 C 5.410156 -7.101562 5.578125 -7.226562 5.796875 -7.28125 C 6.015625 -7.34375 6.222656 -7.316406 6.421875 -7.203125 L 10.3125 -4.890625 C 10.507812 -4.765625 10.632812 -4.59375 10.6875 -4.375 C 10.75 -4.164062 10.722656 -3.957031 10.609375 -3.75 C 10.492188 -3.5625 10.332031 -3.445312 10.125 -3.40625 C 9.925781 -3.363281 9.722656 -3.410156 9.515625 -3.546875 L 6.375 -5.40625 L 5.203125 -3.421875 L 7.8125 -1.875 C 8.019531 -1.75 8.148438 -1.578125 8.203125 -1.359375 C 8.265625 -1.148438 8.238281 -0.953125 8.125 -0.765625 C 8 -0.566406 7.835938 -0.445312 7.640625 -0.40625 C 7.441406 -0.363281 7.234375 -0.410156 7.015625 -0.546875 L 4.40625 -2.09375 L 3.125 0.0625 Z M 6.265625 1.921875 "/></g></g></g><g fill="#000000" fill-opacity="1"><g transform="translate(138.273816, 294.294278)"><g><path d="M 11.3125 -5.34375 C 11.507812 -5.25 11.640625 -5.109375 11.703125 -4.921875 C 11.773438 -4.742188 11.765625 -4.550781 11.671875 -4.34375 L 8.484375 2.859375 C 8.390625 3.078125 8.238281 3.222656 8.03125 3.296875 C 7.832031 3.378906 7.625 3.375 7.40625 3.28125 C 7.289062 3.226562 7.1875 3.160156 7.09375 3.078125 C 7 2.992188 6.9375 2.898438 6.90625 2.796875 L 4.921875 -4.953125 L 2.578125 0.328125 C 2.492188 0.515625 2.359375 0.644531 2.171875 0.71875 C 1.992188 0.800781 1.800781 0.796875 1.59375 0.703125 C 1.394531 0.617188 1.257812 0.476562 1.1875 0.28125 C 1.125 0.09375 1.132812 -0.09375 1.21875 -0.28125 L 4.421875 -7.5 C 4.515625 -7.707031 4.664062 -7.851562 4.875 -7.9375 C 5.082031 -8.019531 5.296875 -8.007812 5.515625 -7.90625 C 5.640625 -7.851562 5.75 -7.773438 5.84375 -7.671875 C 5.945312 -7.566406 6.003906 -7.457031 6.015625 -7.34375 L 7.984375 0.375 L 10.328125 -4.9375 C 10.421875 -5.144531 10.554688 -5.285156 10.734375 -5.359375 C 10.921875 -5.429688 11.113281 -5.425781 11.3125 -5.34375 Z M 11.3125 -5.34375 "/></g></g></g><g fill="#000000" fill-opacity="1"><g transform="translate(151.57457, 299.764999)"><g/></g></g><g fill="#000000" fill-opacity="1"><g transform="translate(159.416875, 302.211731)"><g><path d="M 9.125 -7.65625 C 9.351562 -7.601562 9.53125 -7.488281 9.65625 -7.3125 C 9.78125 -7.144531 9.816406 -6.945312 9.765625 -6.71875 C 9.710938 -6.488281 9.59375 -6.320312 9.40625 -6.21875 C 9.21875 -6.113281 9.007812 -6.085938 8.78125 -6.140625 L 6.703125 -6.609375 L 5.171875 0.296875 C 5.117188 0.535156 4.988281 0.710938 4.78125 0.828125 C 4.582031 0.941406 4.363281 0.972656 4.125 0.921875 C 3.875 0.867188 3.6875 0.75 3.5625 0.5625 C 3.445312 0.375 3.414062 0.160156 3.46875 -0.078125 L 5 -6.984375 L 2.921875 -7.453125 C 2.679688 -7.503906 2.5 -7.613281 2.375 -7.78125 C 2.257812 -7.957031 2.226562 -8.160156 2.28125 -8.390625 C 2.332031 -8.609375 2.453125 -8.769531 2.640625 -8.875 C 2.828125 -8.988281 3.035156 -9.019531 3.265625 -8.96875 Z M 9.125 -7.65625 "/></g></g></g><g fill="#000000" fill-opacity="1"><g transform="translate(172.171966, 304.821095)"><g><path d="M 10.109375 -3.8125 C 10.023438 -2.914062 9.753906 -2.113281 9.296875 -1.40625 C 8.835938 -0.707031 8.238281 -0.175781 7.5 0.1875 C 6.757812 0.5625 5.957031 0.707031 5.09375 0.625 C 4.21875 0.539062 3.453125 0.25 2.796875 -0.25 C 2.148438 -0.75 1.664062 -1.382812 1.34375 -2.15625 C 1.019531 -2.9375 0.898438 -3.773438 0.984375 -4.671875 C 1.066406 -5.546875 1.335938 -6.335938 1.796875 -7.046875 C 2.265625 -7.753906 2.863281 -8.285156 3.59375 -8.640625 C 4.320312 -9.003906 5.125 -9.144531 6 -9.0625 C 6.863281 -8.976562 7.625 -8.691406 8.28125 -8.203125 C 8.945312 -7.710938 9.4375 -7.078125 9.75 -6.296875 C 10.070312 -5.515625 10.191406 -4.6875 10.109375 -3.8125 Z M 8.359375 -3.96875 C 8.421875 -4.5625 8.351562 -5.113281 8.15625 -5.625 C 7.96875 -6.144531 7.671875 -6.566406 7.265625 -6.890625 C 6.859375 -7.210938 6.390625 -7.398438 5.859375 -7.453125 C 5.304688 -7.503906 4.800781 -7.410156 4.34375 -7.171875 C 3.894531 -6.929688 3.523438 -6.570312 3.234375 -6.09375 C 2.953125 -5.625 2.78125 -5.09375 2.71875 -4.5 C 2.664062 -3.894531 2.734375 -3.332031 2.921875 -2.8125 C 3.117188 -2.300781 3.414062 -1.882812 3.8125 -1.5625 C 4.21875 -1.238281 4.695312 -1.050781 5.25 -1 C 5.78125 -0.945312 6.273438 -1.046875 6.734375 -1.296875 C 7.191406 -1.546875 7.5625 -1.898438 7.84375 -2.359375 C 8.132812 -2.828125 8.304688 -3.363281 8.359375 -3.96875 Z M 8.359375 -3.96875 "/></g></g></g><g fill="#000000" fill-opacity="1"><g transform="translate(186.970228, 305.891397)"><g><path d="M 4.703125 -9.65625 C 5.554688 -9.6875 6.289062 -9.503906 6.90625 -9.109375 C 7.53125 -8.710938 8.015625 -8.160156 8.359375 -7.453125 C 8.710938 -6.753906 8.910156 -5.960938 8.953125 -5.078125 C 8.984375 -4.191406 8.847656 -3.382812 8.546875 -2.65625 C 8.253906 -1.925781 7.8125 -1.335938 7.21875 -0.890625 C 6.632812 -0.453125 5.914062 -0.21875 5.0625 -0.1875 L 1.84375 -0.0625 C 1.601562 -0.0625 1.398438 -0.132812 1.234375 -0.28125 C 1.078125 -0.425781 0.992188 -0.617188 0.984375 -0.859375 L 0.6875 -8.671875 C 0.675781 -8.898438 0.742188 -9.097656 0.890625 -9.265625 C 1.046875 -9.441406 1.242188 -9.53125 1.484375 -9.53125 Z M 4.875 -1.734375 C 5.6875 -1.765625 6.28125 -2.085938 6.65625 -2.703125 C 7.039062 -3.328125 7.21875 -4.097656 7.1875 -5.015625 C 7.144531 -5.929688 6.910156 -6.679688 6.484375 -7.265625 C 6.054688 -7.847656 5.441406 -8.125 4.640625 -8.09375 L 2.40625 -8 L 2.640625 -1.640625 Z M 4.875 -1.734375 "/></g></g></g><g fill="#000000" fill-opacity="1"><g transform="translate(201.153717, 305.046165)"><g><path d="M 8.15625 -2.390625 C 8.21875 -2.273438 8.253906 -2.171875 8.265625 -2.078125 C 8.304688 -1.847656 8.265625 -1.648438 8.140625 -1.484375 C 8.015625 -1.316406 7.859375 -1.21875 7.671875 -1.1875 C 7.503906 -1.15625 7.347656 -1.175781 7.203125 -1.25 C 7.054688 -1.332031 6.929688 -1.453125 6.828125 -1.609375 L 5.875 -3.109375 L 1.890625 -2.453125 L 1.46875 -0.71875 C 1.4375 -0.539062 1.363281 -0.394531 1.25 -0.28125 C 1.132812 -0.164062 1 -0.0976562 0.84375 -0.078125 C 0.625 -0.0351562 0.441406 -0.0664062 0.296875 -0.171875 C 0.160156 -0.273438 0.0703125 -0.429688 0.03125 -0.640625 C 0.0195312 -0.710938 0.0195312 -0.800781 0.03125 -0.90625 L 2.0625 -9.421875 C 2.101562 -9.617188 2.1875 -9.773438 2.3125 -9.890625 C 2.4375 -10.015625 2.585938 -10.082031 2.765625 -10.09375 C 2.921875 -10.113281 3.078125 -10.085938 3.234375 -10.015625 C 3.390625 -9.941406 3.515625 -9.828125 3.609375 -9.671875 Z M 2.3125 -4.09375 L 4.96875 -4.53125 L 3.109375 -7.4375 Z M 2.3125 -4.09375 "/></g></g></g><g fill="#000000" fill-opacity="1"><g transform="translate(214.085875, 302.661935)"><g><path d="M 3.9375 -0.96875 C 3.300781 -0.789062 2.71875 -0.707031 2.1875 -0.71875 C 1.664062 -0.738281 1.144531 -0.882812 0.625 -1.15625 C 0.332031 -1.289062 0.148438 -1.488281 0.078125 -1.75 C 0.0234375 -1.9375 0.046875 -2.128906 0.140625 -2.328125 C 0.242188 -2.523438 0.398438 -2.648438 0.609375 -2.703125 C 0.765625 -2.753906 0.925781 -2.738281 1.09375 -2.65625 C 1.519531 -2.488281 1.914062 -2.382812 2.28125 -2.34375 C 2.65625 -2.3125 3.066406 -2.359375 3.515625 -2.484375 C 3.992188 -2.617188 4.378906 -2.84375 4.671875 -3.15625 C 4.960938 -3.46875 5.066406 -3.785156 4.984375 -4.109375 C 4.867188 -4.492188 4.601562 -4.75 4.1875 -4.875 C 3.78125 -5 3.1875 -5.007812 2.40625 -4.90625 C 0.414062 -4.644531 -0.789062 -5.257812 -1.21875 -6.75 C -1.363281 -7.289062 -1.351562 -7.804688 -1.1875 -8.296875 C -1.019531 -8.785156 -0.71875 -9.207031 -0.28125 -9.5625 C 0.15625 -9.914062 0.675781 -10.175781 1.28125 -10.34375 C 1.832031 -10.5 2.367188 -10.5625 2.890625 -10.53125 C 3.421875 -10.507812 3.882812 -10.40625 4.28125 -10.21875 C 4.59375 -10.101562 4.785156 -9.914062 4.859375 -9.65625 C 4.910156 -9.445312 4.882812 -9.242188 4.78125 -9.046875 C 4.6875 -8.859375 4.539062 -8.738281 4.34375 -8.6875 C 4.207031 -8.644531 4.070312 -8.644531 3.9375 -8.6875 C 3.675781 -8.8125 3.316406 -8.890625 2.859375 -8.921875 C 2.410156 -8.960938 2.023438 -8.9375 1.703125 -8.84375 C 1.160156 -8.6875 0.765625 -8.460938 0.515625 -8.171875 C 0.273438 -7.890625 0.203125 -7.582031 0.296875 -7.25 C 0.398438 -6.882812 0.632812 -6.648438 1 -6.546875 C 1.375 -6.441406 1.90625 -6.421875 2.59375 -6.484375 C 3.382812 -6.566406 4.03125 -6.570312 4.53125 -6.5 C 5.03125 -6.425781 5.441406 -6.242188 5.765625 -5.953125 C 6.097656 -5.660156 6.347656 -5.222656 6.515625 -4.640625 C 6.671875 -4.097656 6.648438 -3.578125 6.453125 -3.078125 C 6.253906 -2.578125 5.929688 -2.140625 5.484375 -1.765625 C 5.035156 -1.398438 4.519531 -1.132812 3.9375 -0.96875 Z M 3.9375 -0.96875 "/></g></g></g><g fill="#000000" fill-opacity="1"><g transform="translate(226.003822, 298.951261)"><g/></g></g><g fill="#000000" fill-opacity="1"><g transform="translate(233.61623, 295.880148)"><g><path d="M 0.171875 -10.671875 C 0.578125 -10.878906 1.023438 -10.953125 1.515625 -10.890625 C 2.003906 -10.828125 2.460938 -10.644531 2.890625 -10.34375 C 3.328125 -10.039062 3.671875 -9.640625 3.921875 -9.140625 C 4.160156 -8.660156 4.269531 -8.15625 4.25 -7.625 C 4.238281 -7.09375 4.109375 -6.609375 3.859375 -6.171875 C 3.617188 -5.742188 3.296875 -5.425781 2.890625 -5.21875 L 0.78125 -4.15625 L 1.921875 -1.875 C 2.035156 -1.65625 2.0625 -1.445312 2 -1.25 C 1.9375 -1.050781 1.800781 -0.898438 1.59375 -0.796875 C 1.394531 -0.703125 1.195312 -0.691406 1 -0.765625 C 0.800781 -0.835938 0.644531 -0.976562 0.53125 -1.1875 L -2.96875 -8.171875 C -3.070312 -8.378906 -3.085938 -8.59375 -3.015625 -8.8125 C -2.941406 -9.03125 -2.800781 -9.191406 -2.59375 -9.296875 Z M 2.203125 -6.609375 C 2.347656 -6.679688 2.460938 -6.820312 2.546875 -7.03125 C 2.628906 -7.238281 2.664062 -7.46875 2.65625 -7.71875 C 2.644531 -7.96875 2.582031 -8.203125 2.46875 -8.421875 C 2.351562 -8.648438 2.195312 -8.84375 2 -9 C 1.8125 -9.15625 1.609375 -9.253906 1.390625 -9.296875 C 1.179688 -9.347656 1.003906 -9.335938 0.859375 -9.265625 L -1.25 -8.203125 L 0.09375 -5.546875 Z M 2.203125 -6.609375 "/></g></g></g><g fill="#000000" fill-opacity="1"><g transform="translate(244.826779, 289.982859)"><g><path d="M 6.46875 -5.5 C 6.570312 -5.4375 6.648438 -5.363281 6.703125 -5.28125 C 6.835938 -5.082031 6.878906 -4.878906 6.828125 -4.671875 C 6.773438 -4.472656 6.671875 -4.316406 6.515625 -4.203125 C 6.367188 -4.109375 6.210938 -4.066406 6.046875 -4.078125 C 5.890625 -4.097656 5.734375 -4.15625 5.578125 -4.25 L 4.09375 -5.234375 L 0.71875 -3.03125 L 1.0625 -1.25 C 1.09375 -1.082031 1.078125 -0.921875 1.015625 -0.765625 C 0.960938 -0.617188 0.867188 -0.503906 0.734375 -0.421875 C 0.546875 -0.296875 0.367188 -0.25 0.203125 -0.28125 C 0.0351562 -0.320312 -0.109375 -0.429688 -0.234375 -0.609375 C -0.265625 -0.671875 -0.300781 -0.75 -0.34375 -0.84375 L -1.953125 -9.453125 C -1.992188 -9.640625 -1.984375 -9.8125 -1.921875 -9.96875 C -1.859375 -10.132812 -1.742188 -10.257812 -1.578125 -10.34375 C -1.441406 -10.425781 -1.289062 -10.46875 -1.125 -10.46875 C -0.957031 -10.46875 -0.800781 -10.410156 -0.65625 -10.296875 Z M 0.4375 -4.671875 L 2.703125 -6.15625 L -0.1875 -8.0625 Z M 0.4375 -4.671875 "/></g></g></g><g fill="#000000" fill-opacity="1"><g transform="translate(255.697443, 282.53608)"><g><path d="M 5.578125 -6.46875 C 5.710938 -6.488281 5.84375 -6.472656 5.96875 -6.421875 C 6.09375 -6.378906 6.195312 -6.3125 6.28125 -6.21875 C 6.382812 -6.09375 6.441406 -5.941406 6.453125 -5.765625 C 6.460938 -5.554688 6.359375 -5.359375 6.140625 -5.171875 C 5.972656 -5.035156 5.785156 -4.953125 5.578125 -4.921875 C 4.847656 -4.773438 4.113281 -5.132812 3.375 -6 C 3.164062 -6.238281 2.921875 -6.363281 2.640625 -6.375 C 2.359375 -6.394531 2.066406 -6.28125 1.765625 -6.03125 L -0.171875 -4.390625 L 1.53125 -2.375 C 1.6875 -2.1875 1.765625 -1.992188 1.765625 -1.796875 C 1.765625 -1.597656 1.679688 -1.425781 1.515625 -1.28125 C 1.316406 -1.113281 1.09375 -1.023438 0.84375 -1.015625 C 0.601562 -1.015625 0.40625 -1.101562 0.25 -1.28125 L -4.796875 -7.25 C -4.953125 -7.425781 -5.023438 -7.625 -5.015625 -7.84375 C -5.003906 -8.0625 -4.90625 -8.25 -4.71875 -8.40625 L -1.75 -10.921875 C -1.394531 -11.222656 -0.972656 -11.410156 -0.484375 -11.484375 C -0.00390625 -11.554688 0.46875 -11.503906 0.9375 -11.328125 C 1.414062 -11.148438 1.828125 -10.851562 2.171875 -10.4375 C 2.472656 -10.09375 2.664062 -9.675781 2.75 -9.1875 C 2.84375 -8.707031 2.820312 -8.25 2.6875 -7.8125 C 3.375 -7.875 3.957031 -7.671875 4.4375 -7.203125 C 4.539062 -7.097656 4.640625 -7 4.734375 -6.90625 C 4.941406 -6.71875 5.097656 -6.585938 5.203125 -6.515625 C 5.316406 -6.441406 5.441406 -6.425781 5.578125 -6.46875 Z M 1.1875 -7.359375 C 1.3125 -7.460938 1.382812 -7.617188 1.40625 -7.828125 C 1.425781 -8.046875 1.390625 -8.28125 1.296875 -8.53125 C 1.203125 -8.789062 1.054688 -9.035156 0.859375 -9.265625 C 0.703125 -9.453125 0.515625 -9.597656 0.296875 -9.703125 C 0.0859375 -9.804688 -0.113281 -9.851562 -0.3125 -9.84375 C -0.507812 -9.84375 -0.671875 -9.789062 -0.796875 -9.6875 L -3.046875 -7.78125 L -1.0625 -5.453125 Z M 1.1875 -7.359375 "/></g></g></g><g fill="#000000" fill-opacity="1"><g transform="translate(266.046487, 273.380021)"><g><path d="M -2.03125 -11.75 C -1.875 -11.925781 -1.6875 -12.019531 -1.46875 -12.03125 C -1.25 -12.050781 -1.050781 -11.976562 -0.875 -11.8125 C -0.707031 -11.65625 -0.625 -11.472656 -0.625 -11.265625 C -0.632812 -11.054688 -0.71875 -10.863281 -0.875 -10.6875 L -2.328125 -9.125 L 2.859375 -4.3125 C 3.035156 -4.144531 3.125 -3.945312 3.125 -3.71875 C 3.125 -3.488281 3.035156 -3.28125 2.859375 -3.09375 C 2.691406 -2.914062 2.492188 -2.816406 2.265625 -2.796875 C 2.046875 -2.785156 1.847656 -2.863281 1.671875 -3.03125 L -3.515625 -7.84375 L -4.953125 -6.28125 C -5.128906 -6.09375 -5.320312 -5.992188 -5.53125 -5.984375 C -5.738281 -5.972656 -5.925781 -6.046875 -6.09375 -6.203125 C -6.257812 -6.359375 -6.34375 -6.539062 -6.34375 -6.75 C -6.351562 -6.96875 -6.273438 -7.164062 -6.109375 -7.34375 Z M -2.03125 -11.75 "/></g></g></g><g fill="#000000" fill-opacity="1"><g transform="translate(274.647788, 263.680432)"><g><path d="M 2.515625 -6.046875 C 2.648438 -6.242188 2.828125 -6.359375 3.046875 -6.390625 C 3.265625 -6.421875 3.457031 -6.375 3.625 -6.25 C 3.800781 -6.125 3.898438 -5.953125 3.921875 -5.734375 C 3.953125 -5.523438 3.898438 -5.320312 3.765625 -5.125 L 1.09375 -1.484375 C 0.945312 -1.296875 0.765625 -1.179688 0.546875 -1.140625 C 0.328125 -1.109375 0.117188 -1.160156 -0.078125 -1.296875 L -6.375 -5.921875 C -6.5625 -6.054688 -6.671875 -6.238281 -6.703125 -6.46875 C -6.742188 -6.695312 -6.691406 -6.90625 -6.546875 -7.09375 L -3.875 -10.734375 C -3.738281 -10.929688 -3.5625 -11.046875 -3.34375 -11.078125 C -3.125 -11.109375 -2.921875 -11.054688 -2.734375 -10.921875 C -2.554688 -10.785156 -2.453125 -10.613281 -2.421875 -10.40625 C -2.398438 -10.195312 -2.460938 -9.992188 -2.609375 -9.796875 L -4.78125 -6.84375 L -2.921875 -5.484375 L -1.109375 -7.953125 C -0.972656 -8.140625 -0.796875 -8.25 -0.578125 -8.28125 C -0.367188 -8.320312 -0.171875 -8.273438 0.015625 -8.140625 C 0.191406 -8.003906 0.289062 -7.835938 0.3125 -7.640625 C 0.332031 -7.441406 0.269531 -7.242188 0.125 -7.046875 L -1.6875 -4.578125 L 0.34375 -3.09375 Z M 2.515625 -6.046875 "/></g></g></g><g fill="#000000" fill-opacity="1"><g transform="translate(281.683532, 253.677715)"><g><path d="M 2.140625 -3.453125 C 1.816406 -2.890625 1.457031 -2.425781 1.0625 -2.0625 C 0.675781 -1.707031 0.203125 -1.4375 -0.359375 -1.25 C -0.660156 -1.144531 -0.929688 -1.160156 -1.171875 -1.296875 C -1.335938 -1.390625 -1.453125 -1.546875 -1.515625 -1.765625 C -1.578125 -1.984375 -1.554688 -2.1875 -1.453125 -2.375 C -1.367188 -2.519531 -1.242188 -2.617188 -1.078125 -2.671875 C -0.640625 -2.835938 -0.28125 -3.035156 0 -3.265625 C 0.289062 -3.492188 0.550781 -3.8125 0.78125 -4.21875 C 1.03125 -4.65625 1.148438 -5.085938 1.140625 -5.515625 C 1.128906 -5.953125 0.976562 -6.253906 0.6875 -6.421875 C 0.332031 -6.617188 -0.03125 -6.617188 -0.40625 -6.421875 C -0.78125 -6.222656 -1.210938 -5.8125 -1.703125 -5.1875 C -2.941406 -3.613281 -4.234375 -3.21875 -5.578125 -4 C -6.066406 -4.269531 -6.421875 -4.640625 -6.640625 -5.109375 C -6.859375 -5.585938 -6.929688 -6.101562 -6.859375 -6.65625 C -6.785156 -7.207031 -6.597656 -7.753906 -6.296875 -8.296875 C -6.003906 -8.796875 -5.660156 -9.21875 -5.265625 -9.5625 C -4.867188 -9.90625 -4.460938 -10.15625 -4.046875 -10.3125 C -3.753906 -10.4375 -3.488281 -10.429688 -3.25 -10.296875 C -3.070312 -10.191406 -2.945312 -10.035156 -2.875 -9.828125 C -2.8125 -9.617188 -2.832031 -9.421875 -2.9375 -9.234375 C -3.007812 -9.117188 -3.109375 -9.035156 -3.234375 -8.984375 C -3.515625 -8.867188 -3.832031 -8.664062 -4.1875 -8.375 C -4.539062 -8.09375 -4.800781 -7.804688 -4.96875 -7.515625 C -5.238281 -7.035156 -5.359375 -6.609375 -5.328125 -6.234375 C -5.296875 -5.859375 -5.128906 -5.585938 -4.828125 -5.421875 C -4.492188 -5.222656 -4.160156 -5.210938 -3.828125 -5.390625 C -3.492188 -5.566406 -3.109375 -5.921875 -2.671875 -6.453125 C -2.171875 -7.066406 -1.707031 -7.519531 -1.28125 -7.8125 C -0.863281 -8.101562 -0.4375 -8.257812 0 -8.28125 C 0.425781 -8.3125 0.898438 -8.175781 1.421875 -7.875 C 1.910156 -7.59375 2.257812 -7.203125 2.46875 -6.703125 C 2.6875 -6.203125 2.757812 -5.664062 2.6875 -5.09375 C 2.625 -4.53125 2.441406 -3.984375 2.140625 -3.453125 Z M 2.140625 -3.453125 "/></g></g></g><g fill="#000000" fill-opacity="1"><g transform="translate(287.630375, 242.703042)"><g/></g></g><path stroke-linecap="butt" transform="matrix(0.712893, 0.0840728, -0.0840728, 0.712893, 114.733005, 165.71536)" fill="none" stroke-linejoin="miter" d="M -0.00189965 1.500865 L 76.643987 1.497454 " stroke="#000000" stroke-width="3" stroke-opacity="1" stroke-miterlimit="4"/><path stroke-linecap="butt" transform="matrix(0.652281, 0.29969, -0.29969, 0.652281, 115.056319, 165.806766)" fill="none" stroke-linejoin="miter" d="M -0.00168315 1.500725 L 97.193566 1.501456 " stroke="#000000" stroke-width="3" stroke-opacity="1" stroke-miterlimit="4"/><path stroke-linecap="butt" transform="matrix(0.263875, 0.667574, -0.667574, 0.263875, 157.937368, 141.06456)" fill="none" stroke-linejoin="miter" d="M 0.00149518 1.498355 L 81.340538 1.502012 " stroke="#000000" stroke-width="3" stroke-opacity="1" stroke-miterlimit="4"/><path stroke-linecap="butt" transform="matrix(0.717834, 0, 0, 0.717834, 130.931466, 140.224796)" fill="none" stroke-linejoin="miter" d="M -0.0024769 1.498935 L 36.788997 1.498935 " stroke="#000000" stroke-width="3" stroke-opacity="1" stroke-miterlimit="4"/><path stroke-linecap="butt" transform="matrix(0, 0.717834, -0.717834, 0, 132.004844, 141.304913)" fill="none" stroke-linejoin="miter" d="M -0.000314308 1.497779 L 5.397873 1.497779 " stroke="#000000" stroke-width="3" stroke-opacity="1" stroke-miterlimit="4"/><path stroke-linecap="butt" transform="matrix(0.256149, 0.670576, -0.670576, 0.256149, 131.936084, 144.795458)" fill="none" stroke-linejoin="miter" d="M -0.000257899 1.500695 L 36.396383 1.498841 " stroke="#000000" stroke-width="3" stroke-opacity="1" stroke-miterlimit="4"/><path stroke-linecap="butt" transform="matrix(-0.246902, 0.674036, -0.674036, -0.246902, 217.380765, 141.55628)" fill="none" stroke-linejoin="miter" d="M 0.00139557 1.497438 L 91.910752 1.50148 " stroke="#000000" stroke-width="3" stroke-opacity="1" stroke-miterlimit="4"/><path stroke-linecap="butt" transform="matrix(-0.642402, -0.320319, 0.320319, -0.642402, 216.200806, 215.609811)" fill="none" stroke-linejoin="miter" d="M 0.00303267 1.501097 L 36.305236 1.502049 " stroke="#000000" stroke-width="3" stroke-opacity="1" stroke-miterlimit="4"/><path stroke-linecap="butt" transform="matrix(-0.277062, 0.66221, -0.66221, -0.277062, 220.959453, 207.217544)" fill="none" stroke-linejoin="miter" d="M -0.000807101 1.502293 L 11.848758 1.499554 " stroke="#000000" stroke-width="3" stroke-opacity="1" stroke-miterlimit="4"/><path stroke-linecap="butt" transform="matrix(-0.655171, -0.29332, 0.29332, -0.655171, 219.610831, 207.598933)" fill="none" stroke-linejoin="miter" d="M -0.000537923 1.498698 L 29.548504 1.499687 " stroke="#000000" stroke-width="3" stroke-opacity="1" stroke-miterlimit="4"/><path stroke-linecap="butt" transform="matrix(-0.371999, 0.613923, -0.613923, -0.371999, 203.317623, 196.437642)" fill="none" stroke-linejoin="miter" d="M -0.00210611 1.498508 L 3.738379 1.497155 " stroke="#000000" stroke-width="3" stroke-opacity="1" stroke-miterlimit="4"/><path stroke-linecap="butt" transform="matrix(-0.65688, -0.289472, 0.289472, -0.65688, 239.633134, 213.729303)" fill="none" stroke-linejoin="miter" d="M 0.00220203 1.501763 L 57.130613 1.498843 " stroke="#000000" stroke-width="3" stroke-opacity="1" stroke-miterlimit="4"/><path stroke-linecap="butt" transform="matrix(-0.325509, 0.639788, -0.639788, -0.325509, 242.012595, 211.378697)" fill="none" stroke-linejoin="miter" d="M -0.000884351 1.497676 L 2.924398 1.499113 " stroke="#000000" stroke-width="3" stroke-opacity="1" stroke-miterlimit="4"/><path stroke-linecap="butt" transform="matrix(-0.656539, -0.290245, 0.290245, -0.656539, 240.635965, 211.915942)" fill="none" stroke-linejoin="miter" d="M 0.00211339 1.501269 L 32.271739 1.496995 " stroke="#000000" stroke-width="3" stroke-opacity="1" stroke-miterlimit="4"/><path stroke-linecap="butt" transform="matrix(-0.271987, 0.66431, -0.66431, -0.271987, 244.417664, 145.586767)" fill="none" stroke-linejoin="miter" d="M 0.000804909 1.498652 L 84.687723 1.500733 " stroke="#000000" stroke-width="3" stroke-opacity="1" stroke-miterlimit="4"/><path stroke-linecap="butt" transform="matrix(0, -0.717834, 0.717834, 0, 242.342509, 145.174502)" fill="none" stroke-linejoin="miter" d="M -0.00178145 1.498203 L 5.401847 1.498203 " stroke="#000000" stroke-width="3" stroke-opacity="1" stroke-miterlimit="4"/><path stroke-linecap="butt" transform="matrix(0.717834, 0, 0, 0.717834, 216.686225, 139.865909)" fill="none" stroke-linejoin="miter" d="M 0.00177664 1.498254 L 36.787809 1.498254 " stroke="#000000" stroke-width="3" stroke-opacity="1" stroke-miterlimit="4"/><path stroke-linecap="butt" transform="matrix(-0.650161, -0.304263, 0.304263, -0.650161, 229.551097, 234.9352)" fill="none" stroke-linejoin="miter" d="M -0.000983428 1.498954 L 63.476695 1.502833 " stroke="#000000" stroke-width="3" stroke-opacity="1" stroke-miterlimit="4"/><path stroke-linecap="butt" transform="matrix(-0.689648, -0.199177, 0.199177, -0.689648, 229.731772, 234.921899)" fill="none" stroke-linejoin="miter" d="M -0.000680608 1.501224 L 28.648769 1.502284 " stroke="#000000" stroke-width="3" stroke-opacity="1" stroke-miterlimit="4"/><path stroke-linecap="butt" transform="matrix(0.280359, -0.66082, 0.66082, 0.280359, 203.979147, 240.267817)" fill="none" stroke-linejoin="miter" d="M 0.000212128 1.497447 L 18.929021 1.500058 " stroke="#000000" stroke-width="3" stroke-opacity="1" stroke-miterlimit="4"/><path stroke-linecap="butt" transform="matrix(-0.641573, -0.321978, 0.321978, -0.641573, 204.487141, 241.652562)" fill="none" stroke-linejoin="miter" d="M 0.000938298 1.497653 L 92.427173 1.501572 " stroke="#000000" stroke-width="3" stroke-opacity="1" stroke-miterlimit="4"/><path stroke-linecap="butt" transform="matrix(0.39483, -0.599495, 0.599495, 0.39483, 144.946929, 210.47354)" fill="none" stroke-linejoin="miter" d="M 0.000413116 1.502203 L 3.583463 1.50115 " stroke="#000000" stroke-width="3" stroke-opacity="1" stroke-miterlimit="4"/><path stroke-linecap="butt" transform="matrix(-0.645791, -0.313432, 0.313432, -0.645791, 146.789349, 209.886255)" fill="none" stroke-linejoin="miter" d="M 0.00186845 1.498474 L 50.570934 1.500949 " stroke="#000000" stroke-width="3" stroke-opacity="1" stroke-miterlimit="4"/><path stroke-linecap="butt" transform="matrix(-0.384343, 0.606272, -0.606272, -0.384343, 116.785535, 191.926629)" fill="none" stroke-linejoin="miter" d="M 0.00254512 1.500247 L 2.522156 1.500832 " stroke="#000000" stroke-width="3" stroke-opacity="1" stroke-miterlimit="4"/><path stroke-linecap="butt" transform="matrix(-0.649119, -0.306479, 0.306479, -0.649119, 192.901881, 229.15522)" fill="none" stroke-linejoin="miter" d="M -0.00101699 1.503336 L 119.130282 1.498102 " stroke="#000000" stroke-width="3" stroke-opacity="1" stroke-miterlimit="4"/><path stroke-linecap="butt" transform="matrix(-0.332071, 0.636407, -0.636407, -0.332071, 194.966372, 226.027192)" fill="none" stroke-linejoin="miter" d="M -0.00212375 1.501176 L 3.906808 1.499341 " stroke="#000000" stroke-width="3" stroke-opacity="1" stroke-miterlimit="4"/><path stroke-linecap="butt" transform="matrix(-0.645652, -0.313718, 0.313718, -0.645652, 193.535675, 226.49483)" fill="none" stroke-linejoin="miter" d="M -0.00255833 1.499708 L 59.700198 1.500676 " stroke="#000000" stroke-width="3" stroke-opacity="1" stroke-miterlimit="4"/><path stroke-linecap="butt" transform="matrix(0.221832, 0.682697, -0.682697, 0.221832, 153.687666, 197.844186)" fill="none" stroke-linejoin="miter" d="M -0.00133818 1.498918 L 12.636781 1.502966 " stroke="#000000" stroke-width="3" stroke-opacity="1" stroke-miterlimit="4"/><path stroke-linecap="butt" transform="matrix(-0.652394, -0.299445, 0.299445, -0.652394, 183.990256, 213.737974)" fill="none" stroke-linejoin="miter" d="M 0.00334823 1.50087 L 48.717311 1.499019 " stroke="#000000" stroke-width="3" stroke-opacity="1" stroke-miterlimit="4"/><path stroke-linecap="butt" transform="matrix(0.263399, 0.667762, -0.667762, 0.263399, 185.596574, 212.303424)" fill="none" stroke-linejoin="miter" d="M 0.000298059 1.501886 L 9.232339 1.499065 " stroke="#000000" stroke-width="3" stroke-opacity="1" stroke-miterlimit="4"/><path stroke-linecap="butt" transform="matrix(-0.242221, 0.675732, -0.675732, -0.242221, 189.664036, 214.978229)" fill="none" stroke-linejoin="miter" d="M -0.00301482 1.49826 L 6.332945 1.498928 " stroke="#000000" stroke-width="3" stroke-opacity="1" stroke-miterlimit="4"/><path stroke-linecap="butt" transform="matrix(-0.717834, 0, 0, -0.717834, 198.818927, 257.184533)" fill="none" stroke-linejoin="miter" d="M -0.00193061 1.497781 L 32.789879 1.497781 " stroke="#000000" stroke-width="3" stroke-opacity="1" stroke-miterlimit="4"/><path stroke-linecap="butt" transform="matrix(-0.284322, 0.659125, -0.659125, -0.284322, 205.499624, 243.967719)" fill="none" stroke-linejoin="miter" d="M 0.00178537 1.498043 L 18.855515 1.502204 " stroke="#000000" stroke-width="3" stroke-opacity="1" stroke-miterlimit="4"/><path stroke-linecap="butt" transform="matrix(0.647869, 0.309114, -0.309114, 0.647869, 161.04874, 221.606705)" fill="none" stroke-linejoin="miter" d="M 0.000862647 1.498998 L 67.807947 1.500282 " stroke="#000000" stroke-width="3" stroke-opacity="1" stroke-miterlimit="4"/><path stroke-linecap="butt" transform="matrix(-0.430875, 0.574136, -0.574136, -0.430875, 161.884477, 223.440924)" fill="none" stroke-linejoin="miter" d="M -0.00196749 1.501191 L 2.058268 1.499475 " stroke="#000000" stroke-width="3" stroke-opacity="1" stroke-miterlimit="4"/><path stroke-linecap="butt" transform="matrix(0.636527, 0.331842, -0.331842, 0.636527, 161.056033, 223.015416)" fill="none" stroke-linejoin="miter" d="M -0.000537936 1.497994 L 4.334421 1.502527 " stroke="#000000" stroke-width="3" stroke-opacity="1" stroke-miterlimit="4"/><path stroke-linecap="butt" transform="matrix(0.262691, 0.668041, -0.668041, 0.262691, 164.317158, 225.139204)" fill="none" stroke-linejoin="miter" d="M 0.00315168 1.499278 L 45.565457 1.499338 " stroke="#000000" stroke-width="3" stroke-opacity="1" stroke-miterlimit="4"/></svg>