<svg xmlns="http://www.w3.org/2000/svg" xmlns:xlink="http://www.w3.org/1999/xlink" width="500" zoomAndPan="magnify" viewBox="0 0 375 374.999991" height="500" preserveAspectRatio="xMidYMid meet" version="1.0"><rect x="-37.5" width="450" fill="#ffffff" y="-37.499999" height="449.999989" fill-opacity="1"/><rect x="-37.5" width="450" fill="#ffffff" y="-37.499999" height="449.999989" fill-opacity="1"/><path stroke-linecap="butt" transform="matrix(1.732448, 0.204311, -0.204311, 1.732448, 30.713103, 107.76679)" fill="none" stroke-linejoin="miter" d="M -0.0001043 1.501009 L 76.643425 1.499363 " stroke="#000000" stroke-width="3" stroke-opacity="1" stroke-miterlimit="4"/><path stroke-linecap="butt" transform="matrix(1.585151, 0.728296, -0.728296, 1.585151, 31.498823, 107.988802)" fill="none" stroke-linejoin="miter" d="M 0.0000900658 1.500375 L 97.190531 1.49904 " stroke="#000000" stroke-width="3" stroke-opacity="1" stroke-miterlimit="4"/><path stroke-linecap="butt" transform="matrix(0.641261, 1.622314, -1.622314, 0.641261, 135.706812, 47.861306)" fill="none" stroke-linejoin="miter" d="M 0.000565047 1.500164 L 81.339505 1.499743 " stroke="#000000" stroke-width="3" stroke-opacity="1" stroke-miterlimit="4"/><path stroke-linecap="butt" transform="matrix(1.744454, 0, 0, 1.744454, 70.078037, 45.820485)" fill="none" stroke-linejoin="miter" d="M 0.0000506186 1.500192 L 36.788522 1.500192 " stroke="#000000" stroke-width="3" stroke-opacity="1" stroke-miterlimit="4"/><path stroke-linecap="butt" transform="matrix(0, 1.744454, -1.744454, 0, 72.686544, 48.44531)" fill="none" stroke-linejoin="miter" d="M 0.00000165166 1.499743 L 5.401048 1.499743 " stroke="#000000" stroke-width="3" stroke-opacity="1" stroke-miterlimit="4"/><path stroke-linecap="butt" transform="matrix(0.622485, 1.629611, -1.629611, 0.622485, 72.519403, 56.927927)" fill="none" stroke-linejoin="miter" d="M 0.000714245 1.500744 L 36.395319 1.500034 " stroke="#000000" stroke-width="3" stroke-opacity="1" stroke-miterlimit="4"/><path stroke-linecap="butt" transform="matrix(-0.600012, 1.638018, -1.638018, -0.600012, 280.164068, 49.056266)" fill="none" stroke-linejoin="miter" d="M 0.00000307292 1.500004 L 91.910547 1.500621 " stroke="#000000" stroke-width="3" stroke-opacity="1" stroke-miterlimit="4"/><path stroke-linecap="butt" transform="matrix(-1.561143, -0.778428, 0.778428, -1.561143, 277.296579, 229.018461)" fill="none" stroke-linejoin="miter" d="M -0.0000722881 1.500654 L 36.303375 1.499489 " stroke="#000000" stroke-width="3" stroke-opacity="1" stroke-miterlimit="4"/><path stroke-linecap="butt" transform="matrix(-0.673306, 1.609278, -1.609278, -0.673306, 288.860815, 208.62397)" fill="none" stroke-linejoin="miter" d="M -0.0000353184 1.501 L 11.849688 1.499801 " stroke="#000000" stroke-width="3" stroke-opacity="1" stroke-miterlimit="4"/><path stroke-linecap="butt" transform="matrix(-1.592172, -0.712815, 0.712815, -1.592172, 285.583462, 209.550632)" fill="none" stroke-linejoin="miter" d="M -0.000217114 1.499036 L 29.549469 1.500879 " stroke="#000000" stroke-width="3" stroke-opacity="1" stroke-miterlimit="4"/><path stroke-linecap="butt" transform="matrix(-0.904018, 1.491935, -1.491935, -0.904018, 245.988298, 182.426882)" fill="none" stroke-linejoin="miter" d="M -0.000148559 1.500355 L 3.738382 1.499824 " stroke="#000000" stroke-width="3" stroke-opacity="1" stroke-miterlimit="4"/><path stroke-linecap="butt" transform="matrix(-1.596326, -0.703465, 0.703465, -1.596326, 334.24097, 224.448501)" fill="none" stroke-linejoin="miter" d="M -0.000527655 1.49981 L 57.130638 1.500849 " stroke="#000000" stroke-width="3" stroke-opacity="1" stroke-miterlimit="4"/><path stroke-linecap="butt" transform="matrix(-0.79104, 1.554791, -1.554791, -0.79104, 340.023409, 218.736197)" fill="none" stroke-linejoin="miter" d="M 0.00053692 1.499609 L 2.927759 1.500161 " stroke="#000000" stroke-width="3" stroke-opacity="1" stroke-miterlimit="4"/><path stroke-linecap="butt" transform="matrix(-1.595497, -0.705342, 0.705342, -1.595497, 336.677942, 220.041782)" fill="none" stroke-linejoin="miter" d="M 0.000851409 1.499686 L 32.271763 1.499487 " stroke="#000000" stroke-width="3" stroke-opacity="1" stroke-miterlimit="4"/><path stroke-linecap="butt" transform="matrix(-0.660974, 1.614383, -1.614383, -0.660974, 345.868165, 58.851032)" fill="none" stroke-linejoin="miter" d="M 0.000173656 1.500721 L 84.690197 1.499889 " stroke="#000000" stroke-width="3" stroke-opacity="1" stroke-miterlimit="4"/><path stroke-linecap="butt" transform="matrix(0, -1.744454, 1.744454, 0, 340.82512, 57.849078)" fill="none" stroke-linejoin="miter" d="M 0.000814898 1.499774 L 5.399622 1.499774 " stroke="#000000" stroke-width="3" stroke-opacity="1" stroke-miterlimit="4"/><path stroke-linecap="butt" transform="matrix(1.744454, 0, 0, 1.744454, 278.476186, 44.948258)" fill="none" stroke-linejoin="miter" d="M 0.000215705 1.500842 L 36.786448 1.500842 " stroke="#000000" stroke-width="3" stroke-opacity="1" stroke-miterlimit="4"/><path stroke-linecap="butt" transform="matrix(-1.579998, -0.739408, 0.739408, -1.579998, 309.739964, 275.982287)" fill="none" stroke-linejoin="miter" d="M 0.000496414 1.49914 L 63.477711 1.500362 " stroke="#000000" stroke-width="3" stroke-opacity="1" stroke-miterlimit="4"/><path stroke-linecap="butt" transform="matrix(-1.675957, -0.484032, 0.484032, -1.675957, 310.179037, 275.949942)" fill="none" stroke-linejoin="miter" d="M -0.000879285 1.499363 L 28.64662 1.49989 " stroke="#000000" stroke-width="3" stroke-opacity="1" stroke-miterlimit="4"/><path stroke-linecap="butt" transform="matrix(0.681319, -1.605902, 1.605902, 0.681319, 247.595878, 288.941465)" fill="none" stroke-linejoin="miter" d="M -0.00092341 1.499878 L 18.928633 1.500729 " stroke="#000000" stroke-width="3" stroke-opacity="1" stroke-miterlimit="4"/><path stroke-linecap="butt" transform="matrix(-1.559127, -0.782459, 0.782459, -1.559127, 248.830419, 292.306622)" fill="none" stroke-linejoin="miter" d="M -0.000107215 1.499529 L 92.424914 1.500496 " stroke="#000000" stroke-width="3" stroke-opacity="1" stroke-miterlimit="4"/><path stroke-linecap="butt" transform="matrix(0.959501, -1.456872, 1.456872, 0.959501, 104.137901, 216.53647)" fill="none" stroke-linejoin="miter" d="M -0.0000847429 1.500749 L 3.587178 1.500354 " stroke="#000000" stroke-width="3" stroke-opacity="1" stroke-miterlimit="4"/><path stroke-linecap="butt" transform="matrix(-1.569377, -0.761691, 0.761691, -1.569377, 108.615276, 215.10936)" fill="none" stroke-linejoin="miter" d="M 0.000347545 1.500716 L 50.567494 1.500125 " stroke="#000000" stroke-width="3" stroke-opacity="1" stroke-miterlimit="4"/><path stroke-linecap="butt" transform="matrix(-0.934017, 1.47334, -1.47334, -0.934017, 35.701097, 171.464521)" fill="none" stroke-linejoin="miter" d="M -0.000819473 1.499773 L 2.520698 1.499996 " stroke="#000000" stroke-width="3" stroke-opacity="1" stroke-miterlimit="4"/><path stroke-linecap="butt" transform="matrix(-1.577467, -0.744794, 0.744794, -1.577467, 220.676299, 261.936076)" fill="none" stroke-linejoin="miter" d="M 0.000163126 1.499647 L 119.129102 1.499702 " stroke="#000000" stroke-width="3" stroke-opacity="1" stroke-miterlimit="4"/><path stroke-linecap="butt" transform="matrix(-0.806987, 1.546574, -1.546574, -0.806987, 225.693359, 254.334358)" fill="none" stroke-linejoin="miter" d="M 0.000172647 1.498939 L 3.910304 1.499473 " stroke="#000000" stroke-width="3" stroke-opacity="1" stroke-miterlimit="4"/><path stroke-linecap="butt" transform="matrix(-1.569039, -0.762387, 0.762387, -1.569039, 222.216552, 255.470842)" fill="none" stroke-linejoin="miter" d="M 0.000413981 1.499859 L 59.697817 1.499352 " stroke="#000000" stroke-width="3" stroke-opacity="1" stroke-miterlimit="4"/><path stroke-linecap="butt" transform="matrix(0.539089, 1.659066, -1.659066, 0.539089, 125.379342, 185.845065)" fill="none" stroke-linejoin="miter" d="M -0.000759847 1.499824 L 12.635821 1.499671 " stroke="#000000" stroke-width="3" stroke-opacity="1" stroke-miterlimit="4"/><path stroke-linecap="butt" transform="matrix(-1.585425, -0.7277, 0.7277, -1.585425, 199.01961, 224.469477)" fill="none" stroke-linejoin="miter" d="M 0.00128795 1.500353 L 48.718374 1.498955 " stroke="#000000" stroke-width="3" stroke-opacity="1" stroke-miterlimit="4"/><path stroke-linecap="butt" transform="matrix(0.640103, 1.622771, -1.622771, 0.640103, 202.923243, 220.983384)" fill="none" stroke-linejoin="miter" d="M 0.000776824 1.500803 L 9.230337 1.499393 " stroke="#000000" stroke-width="3" stroke-opacity="1" stroke-miterlimit="4"/><path stroke-linecap="butt" transform="matrix(-0.588638, 1.64214, -1.64214, -0.588638, 212.807818, 227.483656)" fill="none" stroke-linejoin="miter" d="M 0.000631495 1.500296 L 6.332718 1.499844 " stroke="#000000" stroke-width="3" stroke-opacity="1" stroke-miterlimit="4"/><path stroke-linecap="butt" transform="matrix(-1.744454, 0, 0, -1.744454, 235.055701, 330.051775)" fill="none" stroke-linejoin="miter" d="M 0.000581021 1.50086 L 32.792009 1.50086 " stroke="#000000" stroke-width="3" stroke-opacity="1" stroke-miterlimit="4"/><path stroke-linecap="butt" transform="matrix(-0.69095, 1.601782, -1.601782, -0.69095, 251.290915, 297.932911)" fill="none" stroke-linejoin="miter" d="M 0.00137343 1.500359 L 18.855001 1.500623 " stroke="#000000" stroke-width="3" stroke-opacity="1" stroke-miterlimit="4"/><path stroke-linecap="butt" transform="matrix(1.574427, 0.751197, -0.751197, 1.574427, 143.267954, 243.591898)" fill="none" stroke-linejoin="miter" d="M -0.000378162 1.499917 L 67.809234 1.499348 " stroke="#000000" stroke-width="3" stroke-opacity="1" stroke-miterlimit="4"/><path stroke-linecap="butt" transform="matrix(-1.047097, 1.395244, -1.395244, -1.047097, 145.298916, 248.049358)" fill="none" stroke-linejoin="miter" d="M 0.00046733 1.498946 L 2.055642 1.499216 " stroke="#000000" stroke-width="3" stroke-opacity="1" stroke-miterlimit="4"/><path stroke-linecap="butt" transform="matrix(1.546864, 0.80643, -0.80643, 1.546864, 143.285707, 247.015414)" fill="none" stroke-linejoin="miter" d="M -0.000876619 1.500604 L 4.336866 1.499315 " stroke="#000000" stroke-width="3" stroke-opacity="1" stroke-miterlimit="4"/><path stroke-linecap="butt" transform="matrix(0.638381, 1.623449, -1.623449, 0.638381, 151.210747, 252.17635)" fill="none" stroke-linejoin="miter" d="M -0.000220286 1.498822 L 45.562398 1.499061 " stroke="#000000" stroke-width="3" stroke-opacity="1" stroke-miterlimit="4"/></svg>